
<svg xmlns="http://www.w3.org/2000/svg" viewBox="-362.4 459.1 500 500"><radialGradient id="a" cx="-1002.912" cy="1088.669" r=".637" gradientTransform="matrix(545.6736 0 0 -528.3113 547071.625 575749.063)" gradientUnits="userSpaceOnUse"><stop offset="0" stop-color="#423325" stop-opacity=".98"/><stop offset="1" stop-color="#1c0a00"/></radialGradient><path fill="url(#a)" d="M-341.6 493h457.7v445.3h-457.7V493z"/><path fill="#FF7F18" d="M-341.6 493h457.7v445.3h-457.7V493zm-20.8 466.1H137V472.2h-499.4v486.9zm327.1-313.3c0-1.7.6-2.5 2.5-2.5H-.1c1.7 0 2.5.6 2.5 2.5V810c0 1.7-.4 2.5-2.5 2.5h-32.3c-2.1 0-2.7-1-2.7-2.7v-164h-.2zm-2.3-47.3c0-13.3 9.4-21.2 21.2-21.2 12.7 0 21.2 8.5 21.2 21.2 0 13.7-8.9 21.2-21.6 21.2-12 .1-20.8-7.4-20.8-21.2zm-93.6 115.7c-5.8-23.1-19.6-73.4-24.8-97.8h-.4c-4.4 24.3-15.4 65.5-24.1 97.8h49.3zm-57.8 33.7l-16.4 62.4c-.4 1.7-1 2.1-3.1 2.1h-30.6c-2.1 0-2.5-.6-2.1-3.1l59.1-206.8c1-3.7 1.7-7.1 2.1-17.3 0-1.5.6-2.1 1.7-2.1h43.7c1.5 0 2.1.4 2.5 2.1l66.2 224.5c.4 1.7 0 2.7-1.7 2.7h-34.5c-1.7 0-2.7-.4-3.1-1.9l-17.1-62.6H-189z"/></svg>